<?xml version="1.0" encoding="UTF-8" standalone="no"?>
<svg
   xmlns:dc="http://purl.org/dc/elements/1.1/"
   xmlns:cc="http://creativecommons.org/ns#"
   xmlns:rdf="http://www.w3.org/1999/02/22-rdf-syntax-ns#"
   xmlns:svg="http://www.w3.org/2000/svg"
   xmlns="http://www.w3.org/2000/svg"
   viewBox="0 0 80 80"
   height="1200"
   width="1200"
   xml:space="preserve"
   version="1.1"
   id="svg2"><metadata
     id="metadata8"><rdf:RDF><cc:Work
         rdf:about=""><dc:format>image/svg+xml</dc:format><dc:type
           rdf:resource="http://purl.org/dc/dcmitype/StillImage" /></cc:Work></rdf:RDF></metadata><defs
     id="defs6" /><g
     transform="matrix(1.25,0,0,-1.25,0,80)"
     id="g10"><g
       transform="scale(0.1,0.1)"
       id="g12"><path
         id="path14"
         style="fill:#7db6d8;fill-opacity:1;fill-rule:nonzero;stroke:none"
         d="M 640,320 C 640,143.27 496.73,0 320,0 143.27,0 0,143.27 0,320 0,496.73 143.27,640 320,640 496.73,640 640,496.73 640,320" /><path
         id="path16"
         style="fill:#6594b2;fill-opacity:1;fill-rule:nonzero;stroke:none"
         d="m 355.699,118.062 c -0.523,1.032 -1.086,2.036 -1.691,3.008 l 11.09,19.977 173.121,158.953 0,0 L 560,320 355.699,118.062 m -71.398,0 L 80,320 101.781,300 275.387,140.605 286.074,121.203 c -0.633,-1.015 -1.226,-2.066 -1.773,-3.141 m -61.418,111.09 -77.75,70.848 11.992,0 65.758,-70.848" /><path
         id="path18"
         style="fill:#495672;fill-opacity:1;fill-rule:nonzero;stroke:none"
         d="m 320,105 c -3.848,0 -7.512,1.461 -10.309,4.105 L 80,320 122.895,320.266 320,140.648 545.668,347.281 c 1.766,-2.222 4.305,-7.769 6.074,-11.633 C 554.27,330.133 556.859,324.469 560,320 L 330.305,109.102 C 327.512,106.461 323.848,105 320,105" /><path
         id="path20"
         style="fill:#567a95;fill-opacity:1;fill-rule:nonzero;stroke:none"
         d="m 354.008,121.07 c -1.281,2.063 -2.742,4 -4.367,5.789 l 15.457,14.188 -11.09,-19.977 m -67.934,0.133 -10.687,19.402 14.972,-13.746 c -1.589,-1.754 -3.023,-3.644 -4.285,-5.656" /><path
         id="path22"
         style="fill:#6594b2;fill-opacity:1;fill-rule:nonzero;stroke:none"
         d="M 260.629,194.754 230.336,222.355 187.551,300 190,300 c 0,6.488 0.141,12.91 0.414,19.27 l 0,0 C 190.141,312.91 190,306.488 190,300 l 11.277,0 59.352,-105.246 M 379.676,195.289 438.723,300 450,300 c 0,6.488 -0.141,12.91 -0.414,19.27 l 0,0 C 449.859,312.91 450,306.488 450,300 l 3.344,0 -42.071,-75.777 -31.597,-28.934" /><path
         id="path24"
         style="fill:#404a5f;fill-opacity:1;fill-rule:nonzero;stroke:none"
         d="m 349.641,126.859 c -1.711,1.891 -3.606,3.618 -5.649,5.153 l 35.684,63.277 31.597,28.934 -46.175,-83.176 -15.457,-14.188 m -59.282,0 -14.972,13.746 -45.051,81.75 30.293,-27.601 35.379,-62.742 c -2.043,-1.535 -3.938,-3.262 -5.649,-5.153" /><path
         id="path26"
         style="fill:#495672;fill-opacity:1;fill-rule:nonzero;stroke:none"
         d="m 320,105 c -5.535,0 -10.602,3.027 -13.219,7.906 L 190,320 c -2.094,3.91 1.43,11.871 2.117,16.969 0.688,5.078 2.793,8.91 5.789,10.519 2.211,1.188 4.59,1.789 7.074,1.789 5.547,0 6.211,-5.394 8.832,-10.273 L 320,151.723 426.188,339.004 c 2.621,4.879 3.285,10.273 8.832,10.273 2.484,0 4.863,-0.601 7.07,-1.789 3,-1.609 5.105,-5.441 5.793,-10.519 C 448.57,331.871 452.094,323.91 450,320 L 333.219,112.906 C 330.602,108.027 325.535,105 320,105" /><path
         id="path28"
         style="fill:#6594b2;fill-opacity:1;fill-rule:nonzero;stroke:none"
         d="m 494.031,300 -40.687,0 16.656,30 c 0.395,0.738 0.309,1.016 -0.094,1.016 -0.617,0 -1.984,-0.657 -3.511,-1.313 -1.528,-0.656 -3.219,-1.312 -4.481,-1.312 -1.016,0 -1.754,0.425 -1.914,1.609 -0.684,5.078 -7.004,8.391 -10,10 -0.059,0.031 -0.125,0.047 -0.199,0.047 -0.367,0 -0.883,-0.41 -1.504,-1.113 C 438.219,452.961 384.613,540 320,540 c 125.812,0 229.836,-96.809 240,-220 -0.004,0.008 -0.008,0.012 -0.012,0.02 -1.086,1.546 -2.816,4.601 -4.73,8.168 -1.215,2.433 -2.371,4.964 -3.516,7.46 -1.769,3.864 -4.308,9.411 -6.074,11.633 l 0,0 c -0.141,0.309 -0.25,0.449 -0.328,0.449 -0.121,0 -0.18,-0.335 -0.184,-0.918 L 494.031,300" /><path
         id="path30"
         style="fill:#567a95;fill-opacity:1;fill-rule:nonzero;stroke:none"
         d="m 538.219,300 0,0 21.781,20 0,0 -21.781,-20 m 21.769,20.02 c -1.715,2.441 -3.265,5.234 -4.73,8.168 1.914,-3.567 3.644,-6.622 4.73,-8.168 m -14.832,26.792 c 0.004,0.583 0.063,0.918 0.184,0.918 0.078,0 0.187,-0.14 0.328,-0.449 l 0,0 -0.512,-0.469" /><path
         id="path32"
         style="fill:#404a5f;fill-opacity:1;fill-rule:nonzero;stroke:none"
         d="m 538.219,300 -44.188,0 51.125,46.812 0.512,0.469 0,0 c 1.766,-2.222 4.305,-7.769 6.074,-11.633 1.145,-2.496 2.301,-5.027 3.516,-7.46 1.465,-2.934 3.015,-5.727 4.73,-8.168 0.004,-0.008 0.008,-0.012 0.012,-0.02 l 0,0 -21.781,-20" /><path
         id="path34"
         style="fill:#567a95;fill-opacity:1;fill-rule:nonzero;stroke:none"
         d="M 453.344,300 450,300 c 0,6.488 -0.141,12.91 -0.414,19.27 L 450,320 c 1.566,2.926 -0.012,8.121 -1.195,12.688 -0.157,2.097 -0.325,4.164 -0.508,6.246 0.621,0.703 1.137,1.113 1.504,1.113 0.074,0 0.14,-0.016 0.199,-0.047 2.996,-1.609 9.316,-4.922 10,-10 0.16,-1.184 0.898,-1.609 1.914,-1.609 1.262,0 2.953,0.656 4.481,1.312 1.527,0.656 2.894,1.313 3.511,1.313 0.403,0 0.489,-0.278 0.094,-1.016 l -16.656,-30" /><path
         id="path36"
         style="fill:#404a5f;fill-opacity:1;fill-rule:nonzero;stroke:none"
         d="m 449.586,319.27 c -0.191,4.5 -0.453,8.988 -0.781,13.418 1.183,-4.567 2.761,-9.762 1.195,-12.688 l -0.414,-0.73" /><path
         id="path38"
         style="fill:#6594b2;fill-opacity:1;fill-rule:nonzero;stroke:none"
         d="M 187.551,300 157.125,300 120,340 80,320 c 12.2891,121.023 115.734,220 240,220 -62.184,0 -114.168,-80.594 -126.977,-188.293 -0.457,0.145 -0.886,0.231 -1.269,0.231 -0.906,0 -1.559,-0.489 -1.754,-1.938 -0.16,-1.184 -1.98,-1.609 -4.652,-1.609 -3.328,0 -7.981,0.656 -12.399,1.312 -4.418,0.656 -8.601,1.313 -10.992,1.313 -1.555,0 -2.352,-0.278 -1.957,-1.016 l 27.551,-50" /><path
         id="path40"
         style="fill:#567a95;fill-opacity:1;fill-rule:nonzero;stroke:none"
         d="m 157.125,300 -11.992,0 -22.238,20.266 L 80,320 l 0,0 40,20 37.125,-40 m -55.344,0 0,0 -21.781,20 0,0 21.781,-20" /><path
         id="path42"
         style="fill:#404a5f;fill-opacity:1;fill-rule:nonzero;stroke:none"
         d="m 145.133,300 -43.352,0 -21.781,20 0,0 42.895,0.266 L 145.133,300" /><path
         id="path44"
         style="fill:#567a95;fill-opacity:1;fill-rule:nonzero;stroke:none"
         d="m 190,300 -2.449,0 L 160,350 c -0.395,0.738 0.402,1.016 1.957,1.016 2.391,0 6.574,-0.657 10.992,-1.313 4.418,-0.656 9.071,-1.312 12.399,-1.312 2.672,0 4.492,0.425 4.652,1.609 0.195,1.449 0.848,1.938 1.754,1.938 0.383,0 0.812,-0.086 1.269,-0.231 -0.742,-6.254 -1.355,-12.594 -1.828,-19.019 C 190.012,328.121 188.434,322.926 190,320 l 0.414,-0.73 C 190.141,312.91 190,306.488 190,300" /><path
         id="path46"
         style="fill:#404a5f;fill-opacity:1;fill-rule:nonzero;stroke:none"
         d="M 190.414,319.27 190,320 c -1.566,2.926 0.012,8.121 1.195,12.688 -0.328,-4.43 -0.59,-8.918 -0.781,-13.418" /><path
         id="path48"
         style="fill:#567a95;fill-opacity:1;fill-rule:nonzero;stroke:none"
         d="m 450,300 -11.277,0 10.863,19.27 C 449.859,312.91 450,306.488 450,300" /><path
         id="path50"
         style="fill:#6594b2;fill-opacity:1;fill-rule:nonzero;stroke:none"
         d="m 404.07,300 -168.14,0 -22.118,39.004 c -2.621,4.879 -3.285,10.273 -8.832,10.273 -0.98,0 -1.945,-0.093 -2.89,-0.281 -0.656,0.672 -1.246,1.094 -1.735,1.094 -0.125,0 -0.246,-0.031 -0.355,-0.09 -0.336,-0.18 -0.715,-0.258 -1.121,-0.258 -1.094,0 -2.399,0.551 -3.668,1.098 -0.758,0.328 -1.504,0.656 -2.188,0.867 C 205.832,459.406 257.816,540 320,540 c 64.613,0 118.219,-87.039 128.297,-201.066 -0.192,-0.223 -0.399,-0.473 -0.613,-0.746 -0.836,4.468 -2.84,7.824 -5.594,9.3 -2.207,1.188 -4.586,1.789 -7.07,1.789 -5.547,0 -6.211,-5.394 -8.832,-10.273 L 404.07,300" /><path
         id="path52"
         style="fill:#567a95;fill-opacity:1;fill-rule:nonzero;stroke:none"
         d="M 201.277,300 190,300 c 0,6.488 0.141,12.91 0.414,19.27 L 201.277,300 m -10.082,32.688 c 0.473,6.425 1.086,12.765 1.828,19.019 0.684,-0.211 1.43,-0.539 2.188,-0.867 1.269,-0.547 2.574,-1.098 3.668,-1.098 0.406,0 0.785,0.078 1.121,0.258 0.109,0.059 0.23,0.09 0.355,0.09 0.489,0 1.079,-0.422 1.735,-1.094 -1.449,-0.285 -2.848,-0.789 -4.184,-1.508 -2.996,-1.609 -5.101,-5.441 -5.789,-10.519 -0.172,-1.285 -0.523,-2.746 -0.922,-4.281 m 257.61,0 c -0.399,1.535 -0.75,2.996 -0.922,4.281 -0.059,0.414 -0.121,0.82 -0.199,1.219 0.214,0.273 0.421,0.523 0.613,0.746 0.183,-2.082 0.351,-4.149 0.508,-6.246" /><path
         id="path54"
         style="fill:#404a5f;fill-opacity:1;fill-rule:nonzero;stroke:none"
         d="m 438.723,300 -34.653,0 22.118,39.004 c 2.621,4.879 3.285,10.273 8.832,10.273 2.484,0 4.863,-0.601 7.07,-1.789 2.754,-1.476 4.758,-4.832 5.594,-9.3 0.078,-0.399 0.14,-0.805 0.199,-1.219 0.172,-1.285 0.523,-2.746 0.922,-4.281 0.328,-4.43 0.59,-8.918 0.781,-13.418 L 438.723,300 m -202.793,0 -34.653,0 -10.863,19.27 c 0.191,4.5 0.453,8.988 0.781,13.418 0.399,1.535 0.75,2.996 0.922,4.281 0.688,5.078 2.793,8.91 5.789,10.519 1.336,0.719 2.735,1.223 4.184,1.508 0.945,0.188 1.91,0.281 2.89,0.281 5.547,0 6.211,-5.394 8.832,-10.273 L 235.93,300" /><path
         id="path56"
         style="fill:#c84755;fill-opacity:1;fill-rule:nonzero;stroke:none"
         d="m 450,320 110,0 c 0,132.551 -107.453,240 -240,240 71.797,0 130,-107.449 130,-240" /><path
         id="path58"
         style="fill:#c84755;fill-opacity:1;fill-rule:nonzero;stroke:none"
         d="M 320,560 C 187.453,560 80,452.551 80,320 l 110,0 c 0,132.551 58.203,240 130,240" /><path
         id="path60"
         style="fill:#ffffff;fill-opacity:1;fill-rule:nonzero;stroke:none"
         d="m 190,320 260,0 C 450,452.551 391.797,560 320,560 248.203,560 190,452.551 190,320" /><path
         id="path62"
         style="fill:#6594b2;fill-opacity:1;fill-rule:nonzero;stroke:none"
         d="m 320,60 c -22.09,0 -40,17.9102 -40,40 0,6.5 1.551,12.637 4.301,18.062 l 7.699,-7.609 7.504,-13.6132 c 1.762,0.3594 3.527,0.6758 5.305,0.9571 l 4.882,-4.8321 c 2.797,-2.6445 6.461,-4.1054 10.309,-4.1054 3.848,0 7.512,1.4609 10.305,4.1015 l 7.218,7.1371 c 1.633,0.039 3.262,0.07 4.899,0.105 l 5.824,10.496 7.453,7.363 C 358.449,112.637 360,106.5 360,100 360,77.9102 342.09,60 320,60" /><path
         id="path64"
         style="fill:#567a95;fill-opacity:1;fill-rule:nonzero;stroke:none"
         d="m 320,88.8594 c -3.848,0 -7.512,1.4609 -10.309,4.1054 l -4.882,4.8321 c 10.734,1.6914 21.703,2.0586 32.714,2.3011 l -7.218,-7.1371 C 327.512,90.3203 323.848,88.8594 320,88.8594 m -28,21.5936 -7.699,7.609 c 0.547,1.075 1.14,2.126 1.773,3.141 L 292,110.453 m 56.246,0.246 5.762,10.371 c 0.605,-0.972 1.168,-1.976 1.691,-3.008 l -7.453,-7.363" /><path
         id="path66"
         style="fill:#567a95;fill-opacity:1;fill-rule:nonzero;stroke:none"
         d="M 299.504,96.8398 292,110.453 304.809,97.7969 c -1.778,-0.2813 -3.543,-0.5977 -5.305,-0.9571 m 38.019,3.2582 10.723,10.601 -5.824,-10.496 c -1.637,-0.035 -3.266,-0.066 -4.899,-0.105" /><path
         id="path68"
         style="fill:#4a667c;fill-opacity:1;fill-rule:nonzero;stroke:none"
         d="M 304.809,97.7969 292,110.453 l -5.926,10.75 c 1.262,2.012 2.696,3.902 4.285,5.656 l 19.114,-17.55 c 2.172,-2.141 4.953,-3.575 7.988,-4.094 0.004,0 0.004,0 0.008,0 0.011,-0.004 0.023,-0.004 0.035,-0.008 0.004,0 0.008,0 0.012,0 0.007,-0.004 0.019,-0.004 0.031,-0.008 0.004,0 0.012,0 0.015,0 0.008,-0.004 0.012,-0.004 0.016,-0.004 0.586,-0.093 1.176,-0.156 1.774,-0.179 0,0 0,0 0.003,0 0.008,-0.004 0.02,-0.004 0.028,-0.004 0.004,0 0.004,0 0.008,0 0.019,0 0.039,0 0.054,0 0.004,0 0.004,0 0.004,0 0.012,0 0.02,-0.004 0.028,-0.004 0.003,0 0.007,0 0.011,0 0.008,0 0.016,0 0.024,0 0.008,0 0.011,0 0.015,0 0.012,0 0.028,0 0.039,0 0.004,0 0.012,0 0.02,0 0.004,0 0.012,-0.004 0.019,-0.004 0.008,0 0.012,0 0.02,0 0.008,0 0.016,0 0.023,0 0.008,0 0.02,0 0.032,0 0.004,0 0.011,0 0.015,0 0.008,0 0.016,0 0.024,0 0.008,0 0.011,0 0.015,0 0.012,0 0.028,0 0.039,0 0.004,0 0.004,0 0.008,0 0.012,0 0.024,-0.004 0.031,-0.004 0.004,0 0.012,0 0.016,0 0.008,0 0.02,0 0.031,0 0,0 0.004,0 0.008,0 0.012,0 0.028,0 0.039,0 0.004,0 0.008,0 0.012,0 0.012,0 0.02,0 0.031,0 0.004,0 0.008,0 0.012,0 0.012,0 0.023,0 0.039,0 0.012,0 0.027,0 0.039,0 0.004,0 0.008,0 0.012,0 0.011,0 0.019,0 0.031,0 0.004,0 0.008,0 0.012,0 0.011,0 0.027,0 0.039,0 0.004,0 0.008,0 0.008,0 0.011,0 0.023,0 0.031,0 0.004,0 0.012,0 0.016,0 0.007,0 0.019,0.004 0.031,0.004 0.004,0 0.004,0 0.008,0 0.011,0 0.027,0 0.039,0 0.004,0 0.007,0 0.015,0 0.008,0 0.016,0 0.024,0 0.004,0 0.011,0 0.015,0 0.012,0 0.024,0 0.032,0 0.007,0 0.015,0 0.023,0 0.008,0 0.012,0 0.02,0 0.007,0 0.015,0.004 0.019,0.004 0.008,0 0.012,0 0.02,0 0.011,0 0.027,0 0.043,0 0.003,0 0.007,0 0.007,0 0.008,0 0.02,0 0.028,0 0.004,0 0.008,0 0.011,0 0.008,0 0.02,0.004 0.028,0.004 l 0,0 c 0.019,0 0.039,0 0.058,0 0.004,0 0.004,0 0.004,0 0.012,0 0.024,0 0.032,0.004 l 0.003,0 c 0.747,0.031 1.485,0.117 2.207,0.257 0.008,0 0.012,0 0.016,0.004 0.008,0 0.016,0 0.02,0 2.894,0.567 5.547,1.973 7.629,4.024 l 19.121,17.558 c 1.625,-1.789 3.086,-3.726 4.367,-5.789 l -5.762,-10.371 -10.723,-10.601 c -11.011,-0.2425 -21.98,-0.6097 -32.714,-2.3011" /><path
         id="path70"
         style="fill:#394051;fill-opacity:1;fill-rule:nonzero;stroke:none"
         d="m 320.039,105 c 0.004,0 0.008,0 0.012,0 -0.004,0 -0.008,0 -0.012,0 m -0.078,0 c -0.004,0 -0.008,0 -0.012,0 0.004,0 0.008,0 0.012,0 m 0.121,0 c 0.004,0 0.008,0 0.012,0 -0.004,0 -0.008,0 -0.012,0 m -0.164,0 c -0.004,0 -0.008,0 -0.012,0 0.004,0 0.008,0 0.012,0 m -0.051,0 c -0.004,0 -0.008,0 -0.008,0 0,0 0.004,0 0.008,0 m 0.266,0 c 0.004,0 0.008,0 0.008,0 0,0 -0.004,0 -0.008,0 m 0.039,0 c 0.004,0 0.012,0 0.016,0 -0.004,0 -0.012,0 -0.016,0 m -0.344,0 c -0.004,0 -0.012,0 -0.016,0 0.004,0 0.012,0 0.016,0 m 0.391,0.004 c 0.004,0 0.004,0 0.008,0 -0.004,0 -0.004,0 -0.008,0 m -0.438,0 c -0.004,0 -0.004,0 -0.008,0 0.004,0 0.004,0 0.008,0 m -0.047,0 c -0.004,0 -0.007,0 -0.015,0 0.008,0 0.011,0 0.015,0 m 0.532,0 c 0.004,0 0.007,0 0.015,0 -0.008,0 -0.011,0 -0.015,0 m -0.571,0 c -0.004,0 -0.011,0 -0.015,0 0.004,0 0.011,0 0.015,0 m 0.61,0 c 0.004,0 0.011,0 0.015,0 -0.004,0 -0.011,0 -0.015,0 m 0.047,0 c 0.007,0 0.015,0 0.023,0 -0.008,0 -0.016,0 -0.023,0 m -0.704,0 c -0.007,0 -0.015,0 -0.023,0 0.008,0 0.016,0 0.023,0 m -0.043,0 c -0.007,0 -0.015,0.004 -0.019,0.004 0.008,0 0.012,-0.004 0.019,-0.004 m 0.79,0 c 0.007,0 0.011,0.004 0.019,0.004 -0.004,0 -0.012,-0.004 -0.019,-0.004 m 0.039,0.004 c 0.011,0 0.027,0 0.043,0 -0.016,0 -0.032,0 -0.043,0 m -0.868,0 c -0.011,0 -0.027,0 -0.039,0 0.012,0 0.028,0 0.039,0 m 0.918,0 c 0.008,0 0.02,0 0.028,0 -0.008,0 -0.02,0 -0.028,0 m -0.972,0 c -0.008,0 -0.016,0 -0.024,0 0.008,0 0.02,0 0.024,0 m 1.011,0 c 0.008,0 0.02,0.004 0.028,0.004 -0.008,0 -0.02,-0.004 -0.028,-0.004 m -1.046,0 c -0.008,0 -0.016,0.004 -0.028,0.004 0.012,0 0.02,-0.004 0.028,-0.004 m 1.074,0.004 c 0.019,0 0.039,0 0.058,0 -0.019,0 -0.039,0 -0.058,0 m -1.106,0 c -0.015,0 -0.035,0 -0.054,0 0.019,0 0.039,0 0.054,0 m 1.168,0 c 0.012,0 0.024,0 0.032,0.004 -0.008,-0.004 -0.02,-0.004 -0.032,-0.004 m -1.23,0 c -0.008,0 -0.02,0 -0.028,0.004 0.008,-0.004 0.02,-0.004 0.028,-0.004 m 1.265,0.004 c 0.747,0.031 1.485,0.117 2.207,0.257 -0.722,-0.14 -1.46,-0.226 -2.207,-0.257 m -1.296,0 c -0.598,0.023 -1.188,0.086 -1.774,0.179 0.582,-0.093 1.176,-0.156 1.774,-0.179 m -1.79,0.183 c -0.003,0 -0.011,0 -0.015,0 0.004,0 0.012,0 0.015,0 m -0.046,0.008 c -0.004,0 -0.008,0 -0.012,0 0.004,0 0.008,0 0.012,0 m -0.047,0.008 c -0.004,0 -0.004,0 -0.008,0 0.004,0 0.004,0 0.008,0 m 5.402,0.062 c 0.008,0 0.016,0 0.02,0 -0.004,0 -0.012,0 -0.02,0 m 7.649,4.024 c 1.058,1.043 1.972,2.254 2.699,3.605 l 10.773,19.106 c 2.043,-1.535 3.938,-3.262 5.649,-5.153 L 330.52,109.301 m -21.047,0.008 -19.114,17.55 c 1.711,1.891 3.606,3.618 5.649,5.153 l 10.773,-19.106 c 0.727,-1.351 1.637,-2.558 2.692,-3.597" /><path
         id="path72"
         style="fill:#404a5f;fill-opacity:1;fill-rule:nonzero;stroke:none"
         d="m 320,105 c -0.016,0 -0.027,0 -0.039,0 -0.004,0 -0.008,0 -0.012,0 -0.011,0 -0.019,0 -0.031,0 -0.004,0 -0.008,0 -0.012,0 -0.011,0 -0.027,0 -0.039,0 -0.004,0 -0.008,0 -0.008,0 -0.011,0 -0.023,0 -0.031,0 -0.004,0 -0.012,0 -0.016,0 -0.007,0 -0.019,0.004 -0.031,0.004 -0.004,0 -0.004,0 -0.008,0 -0.011,0 -0.027,0 -0.039,0 -0.004,0 -0.007,0 -0.015,0 -0.008,0 -0.016,0 -0.024,0 -0.004,0 -0.011,0 -0.015,0 -0.012,0 -0.024,0 -0.032,0 -0.007,0 -0.015,0 -0.023,0 -0.008,0 -0.012,0 -0.02,0 -0.007,0 -0.011,0.004 -0.019,0.004 -0.008,0 -0.016,0 -0.02,0 -0.011,0 -0.027,0 -0.039,0 -0.004,0 -0.007,0 -0.015,0 -0.004,0 -0.016,0 -0.024,0 -0.004,0 -0.008,0 -0.011,0 -0.008,0 -0.016,0.004 -0.028,0.004 0,0 0,0 -0.004,0 -0.015,0 -0.035,0 -0.054,0 -0.004,0 -0.004,0 -0.008,0 -0.008,0 -0.02,0 -0.028,0.004 -0.003,0 -0.003,0 -0.003,0 -0.598,0.023 -1.192,0.086 -1.774,0.179 -0.004,0 -0.008,0 -0.016,0.004 -0.003,0 -0.011,0 -0.015,0 -0.012,0.004 -0.024,0.004 -0.031,0.008 -0.004,0 -0.008,0 -0.012,0 -0.012,0.004 -0.024,0.004 -0.035,0.008 -0.004,0 -0.004,0 -0.008,0 -3.035,0.519 -5.816,1.953 -7.988,4.094 -1.055,1.039 -1.965,2.246 -2.692,3.597 l -10.773,19.106 C 302.691,137.027 311,140 320,140 c 9,0 17.309,-2.973 23.992,-7.988 l -10.773,-19.106 c -0.727,-1.351 -1.641,-2.562 -2.699,-3.605 -2.082,-2.051 -4.735,-3.457 -7.629,-4.024 -0.004,0 -0.012,0 -0.02,0 -0.004,-0.004 -0.008,-0.004 -0.016,-0.004 -0.722,-0.14 -1.46,-0.226 -2.207,-0.257 l -0.003,0 c -0.008,-0.004 -0.02,-0.004 -0.032,-0.004 0,0 0,0 -0.004,0 -0.019,0 -0.039,0 -0.058,0 l 0,0 c -0.008,0 -0.02,-0.004 -0.028,-0.004 -0.003,0 -0.007,0 -0.011,0 -0.008,0 -0.02,0 -0.028,0 0,0 -0.004,0 -0.007,0 -0.016,0 -0.032,0 -0.043,0 -0.008,0 -0.012,0 -0.02,0 -0.008,0 -0.012,-0.004 -0.019,-0.004 -0.008,0 -0.012,0 -0.02,0 -0.008,0 -0.016,0 -0.023,0 -0.008,0 -0.02,0 -0.032,0 -0.004,0 -0.011,0 -0.015,0 -0.008,0 -0.016,0 -0.024,0 -0.008,0 -0.011,0 -0.015,0 -0.012,0 -0.028,0 -0.039,0 -0.004,0 -0.004,0 -0.008,0 -0.012,0 -0.024,-0.004 -0.031,-0.004 -0.004,0 -0.012,0 -0.016,0 -0.008,0 -0.02,0 -0.031,0 0,0 -0.004,0 -0.008,0 -0.012,0 -0.028,0 -0.039,0 -0.004,0 -0.008,0 -0.012,0 -0.012,0 -0.02,0 -0.031,0 -0.004,0 -0.008,0 -0.012,0 -0.012,0 -0.027,0 -0.039,0" /><path
         id="path74"
         style="fill:#e1e3cc;fill-opacity:1;fill-rule:nonzero;stroke:none"
         d="m 360,120 c 0,-22.0898 -17.91,-40 -40,-40 -22.09,0 -40,17.9102 -40,40 0,22.09 17.91,40 40,40 22.09,0 40,-17.91 40,-40" /></g></g></svg>
